<?xml version="1.0" encoding="UTF-8" standalone="no"?>
<!-- Created with Inkscape (http://www.inkscape.org/) -->

<svg
   width="56.757004mm"
   height="59.766159mm"
   viewBox="0 0 56.757004 59.766159"
   version="1.1"
   id="svg5"
   xmlns="http://www.w3.org/2000/svg"
   xmlns:svg="http://www.w3.org/2000/svg">
  <defs
     id="defs2" />
  <g
     id="layer1"
     transform="translate(-132.31594,-67.698194)">
    <path
       id="path20485"
       style="fill:#ffffff;fill-opacity:1;stroke:none;stroke-width:1.97535;stroke-linejoin:bevel;stroke-dasharray:5.92608, 1.97535"
       d="m 135.19847,67.698193 v 6.308142 l 0.0331,-0.02584 a 11.760826,11.760826 0 0 0 -2.91559,7.739063 11.760826,11.760826 0 0 0 11.76104,11.761556 11.760826,11.760826 0 0 1 5.2e-4,0 c -2.79774,10.983396 -4.15982,22.205576 -10.04745,32.673976 12.61074,2.16377 24.49452,1.61718 35.70738,-1.42937 -0.31219,-0.79874 -0.61704,-1.6005 -0.91725,-2.40347 4.29612,-0.57282 9.47388,-1.70271 12.51086,-4.29535 4.29785,-3.66902 4.29761,-10.26171 2.02985,-14.37793 -2.26775,-4.116242 -6.80343,-5.755784 -9.10539,-9.216493 -2.30198,-3.460679 -2.3689,-8.742906 1.11415,-12.542904 3.48303,-3.799983 10.51468,-6.116344 12.81627,-8.219653 2.30158,-2.103324 -0.12666,-3.993989 -4.39767,-1.919263 -4.27105,2.074742 -10.3837,8.115656 -13.44,12.956315 -3.05628,4.840644 -3.05623,8.480293 0.44907,13.194027 3.50531,4.713731 10.51468,10.500441 9.30279,14.573791 -0.9707,3.26266 -7.21293,5.42417 -12.31811,7.01662 -3.79436,-10.49796 -7.15316,-21.149677 -14.57121,-30.368687 a 11.760826,11.760826 0 0 0 2.6262,-7.403165 11.760826,11.760826 0 0 0 -3.95325,-8.794812 v -5.226555 l -3.00033,3.289205 a 11.760826,11.760826 0 0 0 -4.80643,-1.028877 11.760826,11.760826 0 0 0 -5.36969,1.305863 l 0.0325,-0.02481 z m 11.66595,8.265129 a 4.4729211,4.4729211 0 0 1 4.47363,4.472595 4.4729211,4.4729211 0 0 1 -4.47363,4.473629 4.4729211,4.4729211 0 0 1 -3.46956,-1.653646 3.740549,3.6042043 0 0 1 -3.54862,2.4691 3.740549,3.6042043 0 0 1 -3.73982,-3.603914 3.740549,3.6042043 0 0 1 3.73982,-3.604432 3.740549,3.6042043 0 0 1 2.63499,1.045931 4.4729211,4.4729211 0 0 1 4.38319,-3.599263 z" />
    <ellipse
       style="fill:#ffffff;fill-opacity:1;stroke:none;stroke-width:1.97535;stroke-linejoin:bevel;stroke-dasharray:5.92608, 1.97535"
       id="path31605"
       cx="146.86479"
       cy="80.436089"
       rx="1.2366167"
       ry="1.2836568" />
    <ellipse
       style="fill:#ffffff;fill-opacity:1;stroke:none;stroke-width:1.97535;stroke-linejoin:bevel;stroke-dasharray:5.92608, 1.97535"
       id="path31607"
       cx="139.84645"
       cy="82.121048"
       rx="1.1063485"
       ry="1.0446472" />
  </g>
</svg>
