<?xml version="1.0" encoding="UTF-8" standalone="no"?>
<!-- Created with Inkscape (http://www.inkscape.org/) -->

<svg
   width="210mm"
   height="297mm"
   viewBox="0 0 210 297"
   version="1.1"
   id="svg5"
   xmlns="http://www.w3.org/2000/svg"
   xmlns:svg="http://www.w3.org/2000/svg">
  <defs
     id="defs2" />
  <g
     id="layer1">
    <rect
       style="fill:#ffffff;fill-opacity:1;stroke:none;stroke-width:1.167;stroke-linejoin:bevel;stroke-dasharray:3.50099, 1.167"
       id="rect111"
       width="98.247169"
       height="22.154285"
       x="29.050541"
       y="105.30995" />
    <text
       xml:space="preserve"
       style="font-size:50.8px;font-family:'Titan One';-inkscape-font-specification:'Titan One';fill:#ffffff;fill-opacity:1;stroke:#ffffff;stroke-width:1.3;stroke-linejoin:bevel;stroke-dasharray:3.90001, 1.3"
       x="26.967739"
       y="103.25806"
       id="text167"><tspan
         id="tspan165"
         style="font-style:normal;font-variant:normal;font-weight:normal;font-stretch:normal;font-size:50.8px;font-family:'Bebas Neue';-inkscape-font-specification:'Bebas Neue';fill:#ffffff;fill-opacity:1;stroke:none;stroke-width:1.3"
         x="26.967739"
         y="103.25806">KANEV</tspan></text>
    <text
       xml:space="preserve"
       style="font-style:normal;font-variant:normal;font-weight:normal;font-stretch:normal;font-size:24.6677px;font-family:'Bebas Neue';-inkscape-font-specification:'Bebas Neue';fill:#ffffff;fill-opacity:1;stroke:#ffffff;stroke-width:1.42033;stroke-linejoin:bevel;stroke-dasharray:4.261, 1.42033"
       x="28.336769"
       y="142.72168"
       id="text329"
       transform="scale(1.1520864,0.86799046)"><tspan
         id="tspan327"
         style="font-size:24.6677px;fill:#ffffff;fill-opacity:1;stroke:none;stroke-width:1.42033"
         x="28.336769"
         y="142.72168">SOFTWARE</tspan></text>
    <path
       id="path20485"
       style="fill:#ffffff;fill-opacity:1;stroke:none;stroke-width:1.97535;stroke-linejoin:bevel;stroke-dasharray:5.92608, 1.97535"
       d="m 135.19846,67.698058 v 6.308489 l 0.0329,-0.02591 a 11.760826,11.760826 0 0 0 -2.91554,7.739175 11.760826,11.760826 0 0 0 11.7611,11.761086 11.760826,11.760826 0 0 1 7.8e-4,0 c -2.79774,10.983402 -4.16009,22.205572 -10.04772,32.673982 12.61075,2.16377 24.49442,1.61744 35.70729,-1.42911 -0.31219,-0.79874 -0.61693,-1.60059 -0.91714,-2.40356 4.29613,-0.57282 9.47402,-1.70254 12.511,-4.29518 4.29785,-3.66903 4.29755,-10.26202 2.02979,-14.37824 -2.26775,-4.116245 -6.8035,-5.755485 -9.10546,-9.216198 -2.30199,-3.460682 -2.36882,-8.743171 1.11423,-12.543173 3.48304,-3.799987 10.51485,-6.116422 12.81644,-8.219733 2.30158,-2.103326 -0.12703,-3.993814 -4.39804,-1.919086 -4.27106,2.074744 -10.38362,8.11554 -13.43992,12.956204 -3.05628,4.840649 -3.05615,8.48039 0.44915,13.194129 3.50532,4.713737 10.51445,10.500427 9.30256,14.573777 -0.9707,3.26266 -7.21263,5.4243 -12.31782,7.01676 C 163.9877,108.9935 160.6287,98.341923 153.21065,89.122904 a 11.760826,11.760826 0 0 0 2.62659,-7.403092 11.760826,11.760826 0 0 0 -3.95362,-8.795306 v -5.226448 l -3.00035,3.289298 a 11.760826,11.760826 0 0 0 -4.80635,-1.028642 11.760826,11.760826 0 0 0 -5.36937,1.305829 l 0.0323,-0.02512 z" />
    <path
       id="path31391"
       style="fill:#ffffff;fill-opacity:1;stroke:none;stroke-width:1.97535;stroke-linejoin:bevel;stroke-dasharray:5.92608, 1.97535"
       d="m 146.86455,75.963332 a 4.4729211,4.4729211 0 0 0 -4.38312,3.599473 3.740549,3.6042043 0 0 0 -2.63522,-1.04592 3.740549,3.6042043 0 0 0 -3.74003,3.604184 3.740549,3.6042043 0 0 0 3.74003,3.604169 3.740549,3.6042043 0 0 0 3.54843,-2.469525 4.4729211,4.4729211 0 0 0 3.46991,1.653689 4.4729211,4.4729211 0 0 0 4.47343,-4.473431 4.4729211,4.4729211 0 0 0 -4.47343,-4.472639 z" />
    <ellipse
       style="fill:#000000;fill-opacity:1;stroke:none;stroke-width:1.97535;stroke-linejoin:bevel;stroke-dasharray:5.92608, 1.97535"
       id="path31601"
       cx="145.47414"
       cy="82.222137"
       rx="0.067397289"
       ry="0.10109592" />
    <ellipse
       style="fill:#ffffff;fill-opacity:1;stroke:none;stroke-width:1.97535;stroke-linejoin:bevel;stroke-dasharray:5.92608, 1.97535"
       id="path31605"
       cx="146.86479"
       cy="80.436089"
       rx="1.2366167"
       ry="1.2836568" />
    <ellipse
       style="fill:#ffffff;fill-opacity:1;stroke:none;stroke-width:1.97535;stroke-linejoin:bevel;stroke-dasharray:5.92608, 1.97535"
       id="path31607"
       cx="139.84645"
       cy="82.121048"
       rx="1.1063485"
       ry="1.0446472" />
  </g>
</svg>
